G04*
G04 #@! TF.GenerationSoftware,Altium Limited,Altium Designer,23.1.1 (15)*
G04*
G04 Layer_Color=16711935*
%FSLAX44Y44*%
%MOMM*%
G71*
G04*
G04 #@! TF.SameCoordinates,41D86B32-BED1-46DB-A61E-0691954F4559*
G04*
G04*
G04 #@! TF.FilePolarity,Negative*
G04*
G01*
G75*
G04:AMPARAMS|DCode=57|XSize=1.1mm|YSize=2.6mm|CornerRadius=0.55mm|HoleSize=0mm|Usage=FLASHONLY|Rotation=0.000|XOffset=0mm|YOffset=0mm|HoleType=Round|Shape=RoundedRectangle|*
%AMROUNDEDRECTD57*
21,1,1.1000,1.5000,0,0,0.0*
21,1,0.0000,2.6000,0,0,0.0*
1,1,1.1000,0.0000,-0.7500*
1,1,1.1000,0.0000,-0.7500*
1,1,1.1000,0.0000,0.7500*
1,1,1.1000,0.0000,0.7500*
%
%ADD57ROUNDEDRECTD57*%
G04:AMPARAMS|DCode=58|XSize=1.1mm|YSize=2.1mm|CornerRadius=0.55mm|HoleSize=0mm|Usage=FLASHONLY|Rotation=0.000|XOffset=0mm|YOffset=0mm|HoleType=Round|Shape=RoundedRectangle|*
%AMROUNDEDRECTD58*
21,1,1.1000,1.0000,0,0,0.0*
21,1,0.0000,2.1000,0,0,0.0*
1,1,1.1000,0.0000,-0.5000*
1,1,1.1000,0.0000,-0.5000*
1,1,1.1000,0.0000,0.5000*
1,1,1.1000,0.0000,0.5000*
%
%ADD58ROUNDEDRECTD58*%
%ADD59C,1.8032*%
G04:AMPARAMS|DCode=60|XSize=1.8032mm|YSize=1.8032mm|CornerRadius=0.5016mm|HoleSize=0mm|Usage=FLASHONLY|Rotation=90.000|XOffset=0mm|YOffset=0mm|HoleType=Round|Shape=RoundedRectangle|*
%AMROUNDEDRECTD60*
21,1,1.8032,0.8000,0,0,90.0*
21,1,0.8000,1.8032,0,0,90.0*
1,1,1.0032,0.4000,0.4000*
1,1,1.0032,0.4000,-0.4000*
1,1,1.0032,-0.4000,-0.4000*
1,1,1.0032,-0.4000,0.4000*
%
%ADD60ROUNDEDRECTD60*%
%ADD61C,1.4732*%
D57*
X1083330Y443549D02*
D03*
X996930D02*
D03*
D58*
X1083330Y497150D02*
D03*
X996930D02*
D03*
D59*
X833120Y919480D02*
D03*
Y894080D02*
D03*
Y868680D02*
D03*
Y843280D02*
D03*
Y792480D02*
D03*
Y767080D02*
D03*
Y665480D02*
D03*
Y589280D02*
D03*
Y538480D02*
D03*
Y487680D02*
D03*
Y513080D02*
D03*
Y563880D02*
D03*
Y614680D02*
D03*
Y640080D02*
D03*
Y690880D02*
D03*
Y716280D02*
D03*
Y741680D02*
D03*
Y817880D02*
D03*
Y944880D02*
D03*
Y970280D02*
D03*
Y995680D02*
D03*
Y1021080D02*
D03*
Y1046480D02*
D03*
Y1071880D02*
D03*
X1231900Y919480D02*
D03*
Y894080D02*
D03*
Y868680D02*
D03*
Y843280D02*
D03*
Y792480D02*
D03*
Y767080D02*
D03*
Y665480D02*
D03*
Y589280D02*
D03*
Y538480D02*
D03*
Y487680D02*
D03*
Y513080D02*
D03*
Y563880D02*
D03*
Y614680D02*
D03*
Y640080D02*
D03*
Y690880D02*
D03*
Y716280D02*
D03*
Y741680D02*
D03*
Y817880D02*
D03*
Y944880D02*
D03*
Y970280D02*
D03*
Y995680D02*
D03*
Y1021080D02*
D03*
Y1046480D02*
D03*
Y1071880D02*
D03*
D60*
X833120Y462280D02*
D03*
X1231900D02*
D03*
D61*
X1154430Y1033780D02*
D03*
X1094232Y849122D02*
D03*
X1135380Y531114D02*
D03*
X1195578Y516382D02*
D03*
X1071118Y1060196D02*
D03*
X897636Y501142D02*
D03*
X933500Y524002D02*
D03*
X939800Y794766D02*
D03*
X959866Y614426D02*
D03*
X908050Y819658D02*
D03*
X910844Y928624D02*
D03*
X1127506Y840940D02*
D03*
X1147572Y1075182D02*
D03*
X1151636Y912368D02*
D03*
X925576Y577342D02*
D03*
X873760Y497840D02*
D03*
X1136904Y792988D02*
D03*
X966978Y970026D02*
D03*
X1152906Y729234D02*
D03*
X1058418Y792988D02*
D03*
X916686Y911606D02*
D03*
X931308Y1038606D02*
D03*
X1188974Y1062990D02*
D03*
X944626Y867918D02*
D03*
X1064260Y616204D02*
D03*
X875538Y883158D02*
D03*
X1104646Y941832D02*
D03*
X884899Y868934D02*
D03*
X1085342Y940816D02*
D03*
X885190Y1073053D02*
D03*
X1094232Y1013714D02*
D03*
X862838Y1098550D02*
D03*
X1103666Y994192D02*
D03*
X1075691Y985230D02*
D03*
X918718Y746252D02*
D03*
X1003046Y544068D02*
D03*
X905764Y526796D02*
D03*
X1169162Y977900D02*
D03*
X1155700Y886206D02*
D03*
X1066546Y660908D02*
D03*
X1175512Y579374D02*
D03*
X1049020Y914654D02*
D03*
X1124966Y884174D02*
D03*
X1078738Y752602D02*
D03*
X1069340Y959358D02*
D03*
X1026668Y954278D02*
D03*
X962914Y895096D02*
D03*
X994410Y847344D02*
D03*
X917194Y834390D02*
D03*
X921258Y868426D02*
D03*
X1018032Y572262D02*
D03*
X916686Y893180D02*
D03*
X982980Y651510D02*
D03*
X1192784Y689102D02*
D03*
X1135380Y672084D02*
D03*
X1105662Y683514D02*
D03*
X1192784Y696976D02*
D03*
X1100074Y740918D02*
D03*
X1188974Y1024128D02*
D03*
X962152Y938530D02*
D03*
X1073659Y741679D02*
D03*
X1072642Y724408D02*
D03*
X931164Y973074D02*
D03*
X962914Y895096D02*
D03*
X1056132Y763270D02*
D03*
X1099312Y792734D02*
D03*
X1205992Y438150D02*
D03*
X1195578Y503428D02*
D03*
X1175512Y981456D02*
D03*
X1120394Y750824D02*
D03*
X1046734Y827024D02*
D03*
X989076Y915368D02*
D03*
Y995680D02*
D03*
X1050798Y849122D02*
D03*
X1038860Y901954D02*
D03*
X1079460Y607568D02*
D03*
X960628Y910336D02*
D03*
X956056Y879856D02*
D03*
X1066546Y676148D02*
D03*
X1121918Y603250D02*
D03*
X1128014Y611124D02*
D03*
X1141476Y453136D02*
D03*
X1136650Y687324D02*
D03*
X1110488Y725678D02*
D03*
X937514Y831596D02*
D03*
X984364Y731266D02*
D03*
X1111758Y591312D02*
D03*
X1147572Y750824D02*
D03*
X1142492Y946150D02*
D03*
X1183640Y1003808D02*
D03*
X1025652Y1029716D02*
D03*
X1057946D02*
D03*
X962406Y1028446D02*
D03*
X912876Y1093470D02*
D03*
X1101598Y608838D02*
D03*
X1106170Y1047496D02*
D03*
X1096264Y591820D02*
D03*
X985012Y528066D02*
D03*
X944118Y578612D02*
D03*
X1003808Y756158D02*
D03*
X1019048Y698500D02*
D03*
X1155700Y649224D02*
D03*
X1199134Y1093470D02*
D03*
X969772D02*
D03*
X900430Y1084072D02*
D03*
X965200Y564388D02*
D03*
X1026160Y547370D02*
D03*
X967486Y1006094D02*
D03*
X913742Y1013610D02*
D03*
M02*
