G04*
G04 #@! TF.GenerationSoftware,Altium Limited,Altium Designer,23.1.1 (15)*
G04*
G04 Layer_Physical_Order=1*
G04 Layer_Color=255*
%FSLAX44Y44*%
%MOMM*%
G71*
G04*
G04 #@! TF.SameCoordinates,41D86B32-BED1-46DB-A61E-0691954F4559*
G04*
G04*
G04 #@! TF.FilePolarity,Positive*
G04*
G01*
G75*
G04:AMPARAMS|DCode=15|XSize=1.7528mm|YSize=0.4149mm|CornerRadius=0.2075mm|HoleSize=0mm|Usage=FLASHONLY|Rotation=270.000|XOffset=0mm|YOffset=0mm|HoleType=Round|Shape=RoundedRectangle|*
%AMROUNDEDRECTD15*
21,1,1.7528,0.0000,0,0,270.0*
21,1,1.3379,0.4149,0,0,270.0*
1,1,0.4149,0.0000,-0.6690*
1,1,0.4149,0.0000,0.6690*
1,1,0.4149,0.0000,0.6690*
1,1,0.4149,0.0000,-0.6690*
%
%ADD15ROUNDEDRECTD15*%
%ADD16R,0.4149X1.7528*%
%ADD17R,1.7000X0.8000*%
%ADD18R,1.5500X1.4500*%
%ADD19R,0.9000X0.8500*%
%ADD20R,0.5600X0.5200*%
%ADD21R,0.7000X0.7000*%
%ADD22R,0.8500X0.9000*%
%ADD23R,1.4500X1.5500*%
%ADD24R,0.5725X0.6153*%
%ADD25R,0.5000X1.0750*%
%ADD26R,0.3200X0.4300*%
%ADD27R,0.9000X0.9000*%
%ADD28R,0.9000X1.5000*%
%ADD29R,1.5000X0.9000*%
%ADD30R,1.0000X0.7000*%
%ADD31R,0.3000X0.7000*%
G04:AMPARAMS|DCode=32|XSize=1.5mm|YSize=0.45mm|CornerRadius=0.0495mm|HoleSize=0mm|Usage=FLASHONLY|Rotation=90.000|XOffset=0mm|YOffset=0mm|HoleType=Round|Shape=RoundedRectangle|*
%AMROUNDEDRECTD32*
21,1,1.5000,0.3510,0,0,90.0*
21,1,1.4010,0.4500,0,0,90.0*
1,1,0.0990,0.1755,0.7005*
1,1,0.0990,0.1755,-0.7005*
1,1,0.0990,-0.1755,-0.7005*
1,1,0.0990,-0.1755,0.7005*
%
%ADD32ROUNDEDRECTD32*%
%ADD33R,1.0043X0.8721*%
G04:AMPARAMS|DCode=34|XSize=1.0043mm|YSize=0.8721mm|CornerRadius=0.4361mm|HoleSize=0mm|Usage=FLASHONLY|Rotation=180.000|XOffset=0mm|YOffset=0mm|HoleType=Round|Shape=RoundedRectangle|*
%AMROUNDEDRECTD34*
21,1,1.0043,0.0000,0,0,180.0*
21,1,0.1322,0.8721,0,0,180.0*
1,1,0.8721,-0.0661,0.0000*
1,1,0.8721,0.0661,0.0000*
1,1,0.8721,0.0661,0.0000*
1,1,0.8721,-0.0661,0.0000*
%
%ADD34ROUNDEDRECTD34*%
G04:AMPARAMS|DCode=35|XSize=1.0043mm|YSize=3.1821mm|CornerRadius=0.4369mm|HoleSize=0mm|Usage=FLASHONLY|Rotation=180.000|XOffset=0mm|YOffset=0mm|HoleType=Round|Shape=RoundedRectangle|*
%AMROUNDEDRECTD35*
21,1,1.0043,2.3084,0,0,180.0*
21,1,0.1306,3.1821,0,0,180.0*
1,1,0.8737,-0.0653,1.1542*
1,1,0.8737,0.0653,1.1542*
1,1,0.8737,0.0653,-1.1542*
1,1,0.8737,-0.0653,-1.1542*
%
%ADD35ROUNDEDRECTD35*%
%ADD36R,0.8000X0.6000*%
%ADD37R,0.9561X1.6582*%
%ADD38R,1.6582X0.9561*%
%ADD39R,0.5725X0.5682*%
%ADD40R,1.7000X1.1000*%
%ADD41R,1.2549X1.8062*%
%ADD42R,1.1000X1.4000*%
%ADD43R,0.4682X0.4725*%
%ADD44R,0.4725X0.4682*%
%ADD45C,0.2700*%
%ADD46R,0.8000X0.6000*%
%ADD47R,0.6153X0.5725*%
%ADD55C,3.0150*%
G04:AMPARAMS|DCode=57|XSize=1.1mm|YSize=2.6mm|CornerRadius=0.55mm|HoleSize=0mm|Usage=FLASHONLY|Rotation=0.000|XOffset=0mm|YOffset=0mm|HoleType=Round|Shape=RoundedRectangle|*
%AMROUNDEDRECTD57*
21,1,1.1000,1.5000,0,0,0.0*
21,1,0.0000,2.6000,0,0,0.0*
1,1,1.1000,0.0000,-0.7500*
1,1,1.1000,0.0000,-0.7500*
1,1,1.1000,0.0000,0.7500*
1,1,1.1000,0.0000,0.7500*
%
%ADD57ROUNDEDRECTD57*%
G04:AMPARAMS|DCode=58|XSize=1.1mm|YSize=2.1mm|CornerRadius=0.55mm|HoleSize=0mm|Usage=FLASHONLY|Rotation=0.000|XOffset=0mm|YOffset=0mm|HoleType=Round|Shape=RoundedRectangle|*
%AMROUNDEDRECTD58*
21,1,1.1000,1.0000,0,0,0.0*
21,1,0.0000,2.1000,0,0,0.0*
1,1,1.1000,0.0000,-0.5000*
1,1,1.1000,0.0000,-0.5000*
1,1,1.1000,0.0000,0.5000*
1,1,1.1000,0.0000,0.5000*
%
%ADD58ROUNDEDRECTD58*%
%ADD62C,0.2540*%
%ADD63C,1.6000*%
G04:AMPARAMS|DCode=64|XSize=1.6mm|YSize=1.6mm|CornerRadius=0.4mm|HoleSize=0mm|Usage=FLASHONLY|Rotation=90.000|XOffset=0mm|YOffset=0mm|HoleType=Round|Shape=RoundedRectangle|*
%AMROUNDEDRECTD64*
21,1,1.6000,0.8000,0,0,90.0*
21,1,0.8000,1.6000,0,0,90.0*
1,1,0.8000,0.4000,0.4000*
1,1,0.8000,0.4000,-0.4000*
1,1,0.8000,-0.4000,-0.4000*
1,1,0.8000,-0.4000,0.4000*
%
%ADD64ROUNDEDRECTD64*%
%ADD65C,1.2700*%
G36*
X981620Y789230D02*
Y788932D01*
X981391Y788380D01*
X980969Y787958D01*
X980418Y787730D01*
X979821D01*
X979270Y787958D01*
X978848Y788380D01*
X978620Y788932D01*
Y789230D01*
Y797230D01*
X981620D01*
Y789230D01*
D02*
G37*
G36*
X976620D02*
Y788932D01*
X976391Y788380D01*
X975969Y787958D01*
X975418Y787730D01*
X974821D01*
X974270Y787958D01*
X973848Y788380D01*
X973620Y788932D01*
Y789230D01*
Y797230D01*
X976620D01*
Y789230D01*
D02*
G37*
G36*
X971620D02*
Y788932D01*
X971391Y788380D01*
X970969Y787958D01*
X970418Y787730D01*
X969821D01*
X969270Y787958D01*
X968848Y788380D01*
X968620Y788932D01*
Y789230D01*
Y797230D01*
X971620D01*
X971620Y789230D01*
D02*
G37*
G36*
X966620D02*
Y788932D01*
X966391Y788380D01*
X965969Y787958D01*
X965418Y787730D01*
X964821D01*
X964270Y787958D01*
X963848Y788380D01*
X963620Y788932D01*
Y789230D01*
Y797230D01*
X966620D01*
Y789230D01*
D02*
G37*
G36*
X961620D02*
Y788932D01*
X961391Y788380D01*
X960969Y787958D01*
X960418Y787730D01*
X959821D01*
X959270Y787958D01*
X958848Y788380D01*
X958620Y788932D01*
Y789230D01*
X958620D01*
Y797230D01*
X961620D01*
Y789230D01*
D02*
G37*
G36*
X956620D02*
Y788932D01*
X956391Y788380D01*
X955969Y787958D01*
X955418Y787730D01*
X954821D01*
X954270Y787958D01*
X953848Y788380D01*
X953620Y788932D01*
Y789230D01*
Y797230D01*
X956620D01*
Y789230D01*
D02*
G37*
G36*
X951620D02*
Y788932D01*
X951391Y788380D01*
X950969Y787958D01*
X950418Y787730D01*
X949821D01*
X949270Y787958D01*
X948848Y788380D01*
X948620Y788932D01*
Y789230D01*
Y797230D01*
X951620D01*
Y789230D01*
D02*
G37*
G36*
X993870Y781980D02*
X985571D01*
X985020Y782208D01*
X984598Y782630D01*
X984370Y783182D01*
Y783480D01*
Y783778D01*
X984598Y784330D01*
X985020Y784752D01*
X985571Y784980D01*
X993870D01*
Y781980D01*
D02*
G37*
G36*
X945219Y784752D02*
X945641Y784330D01*
X945870Y783778D01*
Y783480D01*
Y783182D01*
X945641Y782630D01*
X945219Y782208D01*
X944668Y781980D01*
X936370D01*
Y784980D01*
X944668D01*
X945219Y784752D01*
D02*
G37*
G36*
X993870Y776980D02*
X985571D01*
X985020Y777208D01*
X984598Y777630D01*
X984370Y778182D01*
Y778480D01*
Y778778D01*
X984598Y779330D01*
X985020Y779752D01*
X985571Y779980D01*
X993870D01*
Y776980D01*
D02*
G37*
G36*
X945219Y779752D02*
X945641Y779330D01*
X945870Y778778D01*
Y778480D01*
Y778182D01*
X945641Y777630D01*
X945219Y777208D01*
X944668Y776980D01*
X936370D01*
Y779980D01*
X944668D01*
X945219Y779752D01*
D02*
G37*
G36*
X993870Y771980D02*
X985571D01*
X985020Y772208D01*
X984598Y772630D01*
X984370Y773182D01*
Y773480D01*
Y773778D01*
X984598Y774330D01*
X985020Y774752D01*
X985571Y774980D01*
X985870D01*
Y774980D01*
X993870D01*
Y771980D01*
D02*
G37*
G36*
X944370Y774980D02*
X944668D01*
X945219Y774752D01*
X945641Y774330D01*
X945870Y773778D01*
Y773480D01*
Y773182D01*
X945641Y772630D01*
X945219Y772208D01*
X944668Y771980D01*
X936370D01*
Y774980D01*
X944370Y774980D01*
D02*
G37*
G36*
X993870Y766980D02*
X985571D01*
X985020Y767208D01*
X984598Y767630D01*
X984370Y768182D01*
Y768480D01*
Y768778D01*
X984598Y769330D01*
X985020Y769752D01*
X985571Y769980D01*
X993870D01*
Y766980D01*
D02*
G37*
G36*
X945219Y769752D02*
X945641Y769330D01*
X945870Y768778D01*
Y768480D01*
Y768182D01*
X945641Y767630D01*
X945219Y767208D01*
X944668Y766980D01*
X936370D01*
Y769980D01*
X944668D01*
X945219Y769752D01*
D02*
G37*
G36*
X993870Y761980D02*
X985870Y761980D01*
X985571D01*
X985020Y762208D01*
X984598Y762630D01*
X984370Y763182D01*
Y763480D01*
Y763778D01*
X984598Y764330D01*
X985020Y764752D01*
X985571Y764980D01*
X993870D01*
Y761980D01*
D02*
G37*
G36*
X945219Y764752D02*
X945641Y764330D01*
X945870Y763778D01*
Y763480D01*
Y763182D01*
X945641Y762630D01*
X945219Y762208D01*
X944668Y761980D01*
X944370D01*
Y761980D01*
X936370D01*
Y764980D01*
X944668D01*
X945219Y764752D01*
D02*
G37*
G36*
X993870Y756980D02*
X985571D01*
X985020Y757208D01*
X984598Y757630D01*
X984370Y758182D01*
Y758480D01*
Y758778D01*
X984598Y759330D01*
X985020Y759752D01*
X985571Y759980D01*
X993870D01*
Y756980D01*
D02*
G37*
G36*
X945219Y759752D02*
X945641Y759330D01*
X945870Y758778D01*
Y758480D01*
Y758182D01*
X945641Y757630D01*
X945219Y757208D01*
X944668Y756980D01*
X936370D01*
Y759980D01*
X944668D01*
X945219Y759752D01*
D02*
G37*
G36*
X993870Y751980D02*
X985571D01*
X985020Y752208D01*
X984598Y752630D01*
X984370Y753182D01*
Y753480D01*
Y753778D01*
X984598Y754330D01*
X985020Y754752D01*
X985571Y754980D01*
X993870D01*
Y751980D01*
D02*
G37*
G36*
X945219Y754752D02*
X945641Y754330D01*
X945870Y753778D01*
Y753480D01*
Y753182D01*
X945641Y752630D01*
X945219Y752208D01*
X944668Y751980D01*
X936370D01*
Y754980D01*
X944668D01*
X945219Y754752D01*
D02*
G37*
G36*
X981870Y751730D02*
X948370D01*
Y781730D01*
X951870Y785230D01*
X981870D01*
Y751730D01*
D02*
G37*
G36*
X980969Y749002D02*
X981391Y748580D01*
X981620Y748028D01*
Y747730D01*
Y739730D01*
X978620D01*
Y747730D01*
Y748028D01*
X978848Y748580D01*
X979270Y749002D01*
X979821Y749230D01*
X980418D01*
X980969Y749002D01*
D02*
G37*
G36*
X975969D02*
X976391Y748580D01*
X976620Y748028D01*
Y747730D01*
Y739730D01*
X973620D01*
Y747730D01*
Y748028D01*
X973848Y748580D01*
X974270Y749002D01*
X974821Y749230D01*
X975418D01*
X975969Y749002D01*
D02*
G37*
G36*
X970969D02*
X971391Y748580D01*
X971620Y748028D01*
Y747730D01*
X971620D01*
Y739730D01*
X968620D01*
Y747730D01*
Y748028D01*
X968848Y748580D01*
X969270Y749002D01*
X969821Y749230D01*
X970418D01*
X970969Y749002D01*
D02*
G37*
G36*
X965969D02*
X966391Y748580D01*
X966620Y748028D01*
Y747730D01*
Y739730D01*
X963620D01*
Y747730D01*
Y748028D01*
X963848Y748580D01*
X964270Y749002D01*
X964821Y749230D01*
X965418D01*
X965969Y749002D01*
D02*
G37*
G36*
X960969D02*
X961391Y748580D01*
X961620Y748028D01*
Y747730D01*
Y739730D01*
X958620D01*
X958620Y747730D01*
Y748028D01*
X958848Y748580D01*
X959270Y749002D01*
X959821Y749230D01*
X960418D01*
X960969Y749002D01*
D02*
G37*
G36*
X955969D02*
X956391Y748580D01*
X956620Y748028D01*
Y747730D01*
Y739730D01*
X953620D01*
Y747730D01*
Y748028D01*
X953848Y748580D01*
X954270Y749002D01*
X954821Y749230D01*
X955418D01*
X955969Y749002D01*
D02*
G37*
G36*
X950969D02*
X951391Y748580D01*
X951620Y748028D01*
Y747730D01*
Y739730D01*
X948620D01*
Y747730D01*
Y748028D01*
X948848Y748580D01*
X949270Y749002D01*
X949821Y749230D01*
X950418D01*
X950969Y749002D01*
D02*
G37*
D15*
X1152080Y707928D02*
D03*
X1145580D02*
D03*
X1139080D02*
D03*
X1132580D02*
D03*
X1126080D02*
D03*
X1119580D02*
D03*
X1113080D02*
D03*
X1106580D02*
D03*
X1100080D02*
D03*
X1093580D02*
D03*
X1087080D02*
D03*
X1080580D02*
D03*
Y775432D02*
D03*
X1087080D02*
D03*
X1093580D02*
D03*
X1100080D02*
D03*
X1106580D02*
D03*
X1113080D02*
D03*
X1119580D02*
D03*
X1126080D02*
D03*
X1132580D02*
D03*
X1139080D02*
D03*
X1145580D02*
D03*
D16*
X1152080D02*
D03*
D17*
X908050Y472930D02*
D03*
Y438930D02*
D03*
X1168400Y474200D02*
D03*
Y440200D02*
D03*
D18*
X902970Y962000D02*
D03*
Y943000D02*
D03*
D19*
X901700Y1000610D02*
D03*
Y1013610D02*
D03*
X1151890Y1019810D02*
D03*
Y1006810D02*
D03*
X902970Y1043940D02*
D03*
Y1056940D02*
D03*
D20*
X1141720Y810260D02*
D03*
X1134120D02*
D03*
D21*
X1115090Y551180D02*
D03*
X1101090D02*
D03*
D22*
X913280Y712470D02*
D03*
X900280D02*
D03*
X909470Y805180D02*
D03*
X896470D02*
D03*
D23*
X933500Y547370D02*
D03*
X952500D02*
D03*
X934770Y661670D02*
D03*
X953770D02*
D03*
D24*
X967740Y454660D02*
D03*
Y463232D02*
D03*
D25*
X969010Y491110D02*
D03*
Y514350D02*
D03*
D26*
X1104900Y527470D02*
D03*
Y516470D02*
D03*
Y496140D02*
D03*
Y485140D02*
D03*
X1106170Y452970D02*
D03*
Y463970D02*
D03*
D27*
X1032510Y975300D02*
D03*
X1018510D02*
D03*
X1004510D02*
D03*
X1032510Y989300D02*
D03*
X1018510D02*
D03*
X1004510D02*
D03*
X1032510Y1003300D02*
D03*
X1018510D02*
D03*
X1004510D02*
D03*
D28*
X1090710Y885100D02*
D03*
X1078010D02*
D03*
X1065310D02*
D03*
X1052610D02*
D03*
X1039910D02*
D03*
X1027210D02*
D03*
X1014510D02*
D03*
X1001810D02*
D03*
X989110D02*
D03*
X976410D02*
D03*
D29*
X1121010Y1062700D02*
D03*
Y1050000D02*
D03*
Y1037300D02*
D03*
Y1024600D02*
D03*
Y1011900D02*
D03*
Y999200D02*
D03*
Y986500D02*
D03*
Y973800D02*
D03*
Y961100D02*
D03*
Y948400D02*
D03*
Y935700D02*
D03*
Y923000D02*
D03*
Y910300D02*
D03*
Y897600D02*
D03*
X946010D02*
D03*
Y910300D02*
D03*
Y923000D02*
D03*
Y935700D02*
D03*
Y948400D02*
D03*
Y961100D02*
D03*
Y973800D02*
D03*
Y986500D02*
D03*
Y999200D02*
D03*
Y1011900D02*
D03*
Y1024600D02*
D03*
Y1037300D02*
D03*
Y1050000D02*
D03*
Y1062700D02*
D03*
D30*
X1071130Y488250D02*
D03*
X1009130D02*
D03*
D31*
X1017630D02*
D03*
X1022630D02*
D03*
X1027630D02*
D03*
X1032630D02*
D03*
X1037630D02*
D03*
X1042630D02*
D03*
X1047630D02*
D03*
X1052630D02*
D03*
X1057630D02*
D03*
X1062630D02*
D03*
X1070130Y501250D02*
D03*
X1065130D02*
D03*
X1060130D02*
D03*
X1055130D02*
D03*
X1050130D02*
D03*
X1045130D02*
D03*
X1035130D02*
D03*
X1030130D02*
D03*
X1025130D02*
D03*
X1020130D02*
D03*
X1015130D02*
D03*
X1010130D02*
D03*
D32*
X1072960Y633520D02*
D03*
X1079460D02*
D03*
X1085960D02*
D03*
X1092460D02*
D03*
X1098960D02*
D03*
X1105460D02*
D03*
X1111960D02*
D03*
X1118460D02*
D03*
X1124960D02*
D03*
X1131460D02*
D03*
X1137960D02*
D03*
X1144460D02*
D03*
Y575520D02*
D03*
X1137960D02*
D03*
X1131460D02*
D03*
X1124960D02*
D03*
X1118460D02*
D03*
X1111960D02*
D03*
X1105460D02*
D03*
X1098960D02*
D03*
X1092460D02*
D03*
X1085960D02*
D03*
X1079460D02*
D03*
X1072960D02*
D03*
D33*
X977830Y579080D02*
D03*
D34*
Y601980D02*
D03*
Y624880D02*
D03*
D35*
X911930Y601980D02*
D03*
D36*
X1167010Y946810D02*
D03*
Y965810D02*
D03*
X1146810Y956310D02*
D03*
X1170880Y890930D02*
D03*
Y909930D02*
D03*
X1150680Y900430D02*
D03*
D37*
X1082188Y808990D02*
D03*
X1108710D02*
D03*
D38*
X1045210Y611431D02*
D03*
Y584909D02*
D03*
X1043940Y638249D02*
D03*
Y664771D02*
D03*
X1168400Y619051D02*
D03*
Y592529D02*
D03*
X1021080Y737161D02*
D03*
Y710639D02*
D03*
D39*
X1149350Y1053947D02*
D03*
Y1062990D02*
D03*
X1140460Y861771D02*
D03*
Y852728D02*
D03*
X1187450Y988772D02*
D03*
Y979729D02*
D03*
D40*
X1004570Y585170D02*
D03*
Y611170D02*
D03*
X1021080Y792180D02*
D03*
Y818180D02*
D03*
D41*
X979456Y830580D02*
D03*
X950944D02*
D03*
D42*
X957720Y712470D02*
D03*
X975220D02*
D03*
D43*
X898948Y749300D02*
D03*
X906991D02*
D03*
D44*
X1019810Y767292D02*
D03*
Y759249D02*
D03*
D45*
X950119Y792480D02*
D03*
X955120D02*
D03*
X960120D02*
D03*
X965120Y795230D02*
D03*
X970120Y792480D02*
D03*
X975120D02*
D03*
X980120D02*
D03*
X989120Y783480D02*
D03*
Y778480D02*
D03*
Y773480D02*
D03*
X991870Y768480D02*
D03*
X989120Y763480D02*
D03*
Y758480D02*
D03*
Y753480D02*
D03*
X980120Y744480D02*
D03*
X975120D02*
D03*
X970120D02*
D03*
X965120Y741230D02*
D03*
X960120Y744480D02*
D03*
X955120D02*
D03*
X950119D02*
D03*
X941120Y753480D02*
D03*
Y758480D02*
D03*
Y763480D02*
D03*
X937870Y768480D02*
D03*
X941120Y773480D02*
D03*
Y778480D02*
D03*
Y783480D02*
D03*
D46*
X902970Y907680D02*
D03*
Y893180D02*
D03*
D47*
X906780Y777240D02*
D03*
X898209D02*
D03*
D55*
X965120Y768480D02*
D03*
D57*
X1083330Y443549D02*
D03*
X996930D02*
D03*
D58*
X1083330Y497150D02*
D03*
X996930D02*
D03*
D62*
X913276Y801374D02*
X924560Y812659D01*
X906780Y794879D02*
X913276Y801374D01*
X1001014Y585170D02*
Y593020D01*
X1030690Y1060196D02*
X1071118D01*
X1030478D02*
X1030690D01*
X1040892Y1049994D01*
X1019514Y1071372D02*
X1030690Y1060196D01*
X1012698Y792180D02*
Y804164D01*
X1009809Y807053D02*
X1012698Y804164D01*
X1008634Y808228D02*
X1009809Y807053D01*
X937006Y1071118D02*
X1019556D01*
X934466D02*
X937006D01*
X937260Y1071372D01*
X934466Y1068578D02*
X937006Y1071118D01*
X934466Y1068578D02*
Y1071118D01*
Y1052794D02*
Y1068578D01*
X910082Y990077D02*
Y1013610D01*
X913742D01*
X901700D02*
X910082D01*
X931418Y601980D02*
X972312D01*
X911930Y593344D02*
X922782D01*
X933500Y538480D02*
Y547370D01*
Y524002D02*
Y538480D01*
X1141720Y826726D02*
Y838454D01*
Y817880D02*
Y826726D01*
X1114806Y865368D02*
Y897600D01*
X1056640Y778256D02*
X1080580D01*
X1104900Y516636D02*
X1107440D01*
X1104900D02*
Y516890D01*
Y516470D02*
Y516636D01*
X1044702Y766318D02*
Y797052D01*
X1019048Y698500D02*
Y710639D01*
X974852Y574040D02*
X977830D01*
Y572770D02*
Y574040D01*
X900684Y942506D02*
X902970D01*
X900684Y918464D02*
Y942506D01*
Y907680D02*
Y918464D01*
X951230Y711200D02*
Y712470D01*
X973582Y572770D02*
X977830D01*
X965200D02*
X973582D01*
X974852Y574040D01*
X965200Y564388D02*
X973582Y572770D01*
X952500Y560070D02*
X965200Y572770D01*
X906780Y582168D02*
X927354D01*
X1056132Y762762D02*
X1093580D01*
X1036320Y626364D02*
X1072960D01*
X914826Y1056940D02*
X934466Y1037300D01*
X970280Y827786D02*
X979456D01*
X945896Y890016D02*
Y897600D01*
X1047496Y664771D02*
Y715264D01*
X1019810Y769407D02*
X1033526D01*
X1175512Y579374D02*
Y592529D01*
X1142492Y946150D02*
Y956310D01*
X1145540Y885988D02*
Y900430D01*
X937514Y831596D02*
X950944D01*
X906780Y777240D02*
Y794879D01*
X909470Y805180D02*
X913276Y801374D01*
X1149350Y1038860D02*
Y1053947D01*
Y1038860D02*
X1154430Y1033780D01*
X1084072Y859282D02*
X1094232Y849122D01*
X1034796Y859282D02*
X1084072D01*
X988173Y812659D02*
X1034796Y859282D01*
X924560Y812659D02*
X988173D01*
X1004570Y568960D02*
Y579120D01*
Y568960D02*
X1016000Y557530D01*
X1031240D01*
X1036320Y552450D01*
Y547116D02*
Y552450D01*
Y547116D02*
X1046480Y536956D01*
X1129538D01*
X1135380Y531114D01*
X1195578Y516382D02*
Y637794D01*
X1179576Y653796D02*
X1195578Y637794D01*
X1179576Y653796D02*
Y841502D01*
X1199134Y861060D01*
Y924052D01*
X1208024Y932942D01*
Y994664D01*
X1188720Y1013968D02*
X1208024Y994664D01*
X1183640Y1013968D02*
X1188720D01*
X1177117Y1020491D02*
X1183640Y1013968D01*
X1177117Y1020491D02*
Y1029543D01*
X1181862Y1034288D01*
X1229360D01*
X1231900Y1046480D01*
X1004570Y579120D02*
Y585170D01*
X969010Y543560D02*
X1004570Y579120D01*
X969010Y514350D02*
Y543560D01*
X1019556Y1071118D02*
X1030478Y1060196D01*
X934466Y1052794D02*
X937260Y1050000D01*
X902970Y982965D02*
X910082Y990077D01*
X902970Y962000D02*
Y982965D01*
X821182Y474218D02*
X833120Y462280D01*
X821182Y474218D02*
Y492760D01*
X828040Y499618D01*
X860044D01*
X868426Y508000D01*
X890778D01*
X897636Y501142D01*
X952087Y807053D02*
X1009809D01*
X939800Y794766D02*
X952087Y807053D01*
X959866Y614426D02*
X972312Y601980D01*
X977830D01*
X1151890Y1019810D02*
X1158240D01*
X1177798Y1039368D01*
X1199388D01*
X1231900Y1071880D01*
X896470Y805180D02*
Y809856D01*
X906272Y819658D01*
X908050D01*
X900684Y918464D02*
X910844Y928624D01*
X900684Y907680D02*
X902970D01*
X1127506Y840940D02*
X1141720Y826726D01*
X957720Y691020D02*
Y712470D01*
X953770Y687070D02*
X957720Y691020D01*
X953770Y661670D02*
Y687070D01*
X1224534Y1079246D02*
X1231900Y1071880D01*
X1151636Y1079246D02*
X1224534D01*
X1147572Y1075182D02*
X1151636Y1079246D01*
Y912368D02*
X1154074Y909930D01*
X1170880D01*
X963930Y579080D02*
X977830D01*
X954238Y588772D02*
X963930Y579080D01*
X925576Y577342D02*
X927354Y582168D01*
X863600Y487680D02*
X873760Y497840D01*
X833120Y487680D02*
X863600D01*
X1152080Y775432D02*
Y789940D01*
X1136904Y792988D02*
X1152080Y789940D01*
X958052Y961100D02*
X966978Y970026D01*
X946010Y961100D02*
X958052D01*
X1119580Y764084D02*
Y775432D01*
Y764084D02*
X1122680Y760984D01*
X1153668D01*
X1157732Y756920D01*
Y734060D02*
Y756920D01*
X1152906Y729234D02*
X1157732Y734060D01*
X1087080Y775432D02*
Y787400D01*
X1081492Y792988D02*
X1087080Y787400D01*
X1058418Y792988D02*
X1081492D01*
X916686Y911606D02*
X921004Y915924D01*
Y980440D01*
X927064Y986500D01*
X946010D01*
X1108710Y799131D02*
Y808990D01*
Y799131D02*
X1110281Y797560D01*
X1120949D01*
X1126635Y803246D01*
X1161535D01*
X1163066Y801715D01*
Y678494D02*
Y801715D01*
X1146496Y661924D02*
X1163066Y678494D01*
X1112376Y661924D02*
X1146496D01*
X1093580Y680720D02*
X1112376Y661924D01*
X1093580Y680720D02*
Y707928D01*
X931308Y1038606D02*
X934466Y1037300D01*
X1149350Y1062990D02*
X1188974D01*
X937260Y923000D02*
X946010D01*
X934466Y920206D02*
X937260Y923000D01*
X934466Y878078D02*
Y920206D01*
Y878078D02*
X944626Y867918D01*
X1064260Y616204D02*
X1068832Y611632D01*
Y589090D02*
Y611632D01*
Y589090D02*
X1072960Y584962D01*
Y575520D02*
Y584962D01*
X833120Y665480D02*
X841655D01*
X860298Y684123D01*
Y867918D01*
X875538Y883158D01*
X1104646Y941832D02*
X1110778Y935700D01*
X1121010D01*
X821182Y575818D02*
X833120Y563880D01*
X821182Y575818D02*
Y645922D01*
X828040Y652780D01*
X853354D01*
X865378Y664804D01*
Y849413D01*
X884899Y868934D01*
X1085342Y940816D02*
X1097280Y952754D01*
X1113754D01*
X1118108Y948400D01*
X1121010D01*
X833120Y690880D02*
X850138Y707898D01*
Y939101D01*
X855090Y944053D01*
Y1042953D01*
X885190Y1073053D01*
X1094232Y1010157D02*
Y1013714D01*
X1085851Y1001776D02*
X1094232Y1010157D01*
X1085851Y972529D02*
Y1001776D01*
Y972529D02*
X1097280Y961100D01*
X1121010D01*
X821182Y728218D02*
X833120Y716280D01*
X821182Y728218D02*
Y778764D01*
X838012Y780670D01*
X845058Y787716D01*
Y945705D01*
X850010Y950657D01*
Y1085722D01*
X862838Y1098550D01*
X1103666Y980440D02*
Y994192D01*
Y980440D02*
X1110306Y973800D01*
X1121010D01*
X1112520Y1011900D02*
X1121010D01*
X1100546Y1023874D02*
X1112520Y1011900D01*
X1086866Y1023874D02*
X1100546D01*
X1084072Y1021080D02*
X1086866Y1023874D01*
X1084072Y1010158D02*
Y1021080D01*
X1075691Y1001777D02*
X1084072Y1010158D01*
X1075691Y985230D02*
Y1001777D01*
X914400Y741934D02*
X918718Y746252D01*
X901742Y741934D02*
X914400D01*
X898948Y744728D02*
X901742Y741934D01*
X898948Y744728D02*
Y749300D01*
X1145540Y900430D02*
X1150680D01*
X1133602Y874050D02*
X1145540Y885988D01*
X1133602Y855980D02*
Y874050D01*
Y855980D02*
X1140460Y852728D01*
X1106170Y452970D02*
Y456946D01*
X1100582D02*
X1106170D01*
X1095248Y462280D02*
X1100582Y456946D01*
X1095248Y462280D02*
Y511810D01*
X1087475Y519583D02*
X1095248Y511810D01*
X1027531Y519583D02*
X1087475D01*
X1003046Y544068D02*
X1027531Y519583D01*
X905764Y526796D02*
X907796Y524764D01*
Y492506D02*
Y524764D01*
Y492506D02*
X945642Y454660D01*
X967740D01*
X1180034Y988772D02*
X1187450D01*
X1169162Y977900D02*
X1180034Y988772D01*
X1155700Y886206D02*
X1160424Y890930D01*
X1170880D01*
X1156208Y619051D02*
X1168400D01*
X1151329Y614172D02*
X1156208Y619051D01*
X1112266Y614172D02*
X1151329D01*
X1105662Y620776D02*
X1112266Y614172D01*
X1089660Y620776D02*
X1105662D01*
X1085960Y624476D02*
X1089660Y620776D01*
X1085960Y624476D02*
Y633520D01*
X1066546Y660908D02*
X1072134Y655320D01*
X1114800D01*
X1124960Y645160D01*
Y633520D02*
Y645160D01*
X1168400Y592529D02*
X1175512D01*
X1049020Y914654D02*
Y1000061D01*
X1072133Y1023174D01*
Y1031240D01*
X1078193Y1037300D01*
X1121010D01*
Y999200D02*
X1128812D01*
X1132332Y995680D01*
Y889254D02*
Y995680D01*
X1130046Y889254D02*
X1132332D01*
X1124966Y884174D02*
X1130046Y889254D01*
X1071880Y752602D02*
X1078738D01*
X1063498Y744220D02*
X1071880Y752602D01*
X1063498Y731266D02*
Y744220D01*
X1047496Y715264D02*
X1063498Y731266D01*
X1043940Y664771D02*
X1047496D01*
X1081060Y923000D02*
X1121010D01*
X1069340Y934720D02*
X1081060Y923000D01*
X1069340Y934720D02*
Y959358D01*
X1026668Y927608D02*
Y954278D01*
X995680Y896620D02*
X1026668Y927608D01*
X964438Y896620D02*
X995680D01*
X962914Y895096D02*
X964438Y896620D01*
X990487Y843421D02*
X994410Y847344D01*
X971437Y843421D02*
X990487D01*
X961136Y833120D02*
X971437Y843421D01*
X961136Y817739D02*
Y833120D01*
X933845Y817739D02*
X961136D01*
X917194Y834390D02*
X933845Y817739D01*
X921258Y858774D02*
Y868426D01*
X884174Y858774D02*
X921258D01*
X870458Y845058D02*
X884174Y858774D01*
X870458Y659203D02*
Y845058D01*
X851335Y640080D02*
X870458Y659203D01*
X833120Y640080D02*
X851335D01*
X1018032Y572262D02*
Y658114D01*
X1003808Y672338D02*
X1018032Y658114D01*
X1003808Y672338D02*
Y738886D01*
X1010920Y745998D01*
X1017524D01*
X1027651Y756125D01*
Y762293D01*
X1029163Y763805D01*
Y778927D01*
X1033907Y783671D01*
Y836295D01*
X1035940Y838328D01*
X1104012D01*
X1104646Y838962D01*
Y906490D01*
X1108456Y910300D01*
X1121010D01*
X833120Y589280D02*
X877316Y633476D01*
Y838033D01*
X889262Y849979D01*
X907655D01*
X911257Y853581D01*
X970167D01*
X989110Y872524D01*
Y885100D01*
X976410D02*
Y920530D01*
X982726Y926846D01*
Y985266D01*
X977646Y990346D02*
X982726Y985266D01*
X977646Y990346D02*
Y1050254D01*
X965200Y1062700D02*
X977646Y1050254D01*
X946010Y1062700D02*
X965200D01*
X902970Y893180D02*
X916686D01*
X982980Y651510D02*
X993140D01*
X1004570Y640080D01*
Y611170D02*
Y640080D01*
X934084Y491110D02*
X969010D01*
X917194Y508000D02*
X934084Y491110D01*
X917194Y508000D02*
Y553720D01*
X897890Y573024D02*
X917194Y553720D01*
X897890Y573024D02*
Y695198D01*
X887476Y705612D02*
X897890Y695198D01*
X887476Y705612D02*
Y823214D01*
X894080Y829818D01*
X918210D01*
X930289Y817739D01*
X965454D01*
Y822960D01*
X970280Y827786D01*
X979456D02*
Y830580D01*
X1167010Y965810D02*
X1178492D01*
X1193931Y950371D01*
Y870404D02*
Y950371D01*
X1173480Y849953D02*
X1193931Y870404D01*
X1173480Y648970D02*
Y849953D01*
Y648970D02*
X1185672Y636778D01*
Y536448D02*
Y636778D01*
X1185418Y536194D02*
X1185672Y536448D01*
X1185418Y481058D02*
Y536194D01*
X1178560Y474200D02*
X1185418Y481058D01*
X1168400Y474200D02*
X1178560D01*
X1101090Y551180D02*
X1109556Y542714D01*
X1130978D01*
X1144460Y556196D01*
Y575520D01*
X1231900Y936498D02*
Y944880D01*
X1209294Y913892D02*
X1231900Y936498D01*
X1209294Y853186D02*
Y913892D01*
X1200658Y844550D02*
X1209294Y853186D01*
X1200658Y696976D02*
Y844550D01*
X1192784Y689102D02*
X1200658Y696976D01*
X1113080Y694384D02*
X1135380Y672084D01*
X1113080Y694384D02*
Y707928D01*
X1106580Y684432D02*
Y707928D01*
X1105662Y683514D02*
X1106580Y684432D01*
X1192784Y696976D02*
Y844550D01*
X1204214Y855980D01*
Y915997D01*
X1219962Y931745D01*
Y958342D01*
X1231900Y970280D01*
X1100080Y707928D02*
Y740912D01*
X1100074Y740918D02*
X1100080Y740912D01*
X1188974Y1024128D02*
X1194054Y1019048D01*
X1208532D01*
X1231900Y995680D01*
X946010Y935700D02*
X959322D01*
X962152Y938530D01*
X1073659Y741679D02*
X1087080Y728258D01*
Y707928D02*
Y728258D01*
X1080580Y707928D02*
Y716470D01*
X1072642Y724408D02*
X1080580Y716470D01*
X931164Y973074D02*
X931890Y973800D01*
X946010D01*
Y999200D02*
X959394D01*
X977646Y980948D01*
Y965200D02*
Y980948D01*
X972312Y959866D02*
X977646Y965200D01*
X972312Y927862D02*
Y959866D01*
X970788Y926338D02*
X972312Y927862D01*
X970788Y902970D02*
Y926338D01*
X962914Y895096D02*
X970788Y902970D01*
X1056132Y762762D02*
Y763270D01*
X1093580Y762762D02*
Y775432D01*
X1099312Y792734D02*
X1100080Y791966D01*
Y775432D02*
Y791966D01*
X1231900Y665480D02*
X1243838Y653542D01*
Y452628D02*
Y653542D01*
X1229360Y438150D02*
X1243838Y452628D01*
X1205992Y438150D02*
X1229360D01*
X1195578Y503428D02*
X1205738Y513588D01*
Y527050D01*
X1204722Y528066D02*
X1205738Y527050D01*
X1204722Y528066D02*
Y654558D01*
X1174496Y684784D02*
X1204722Y654558D01*
X1174496Y684784D02*
Y849884D01*
X1194054Y869442D01*
Y957580D01*
X1179322Y972312D02*
X1194054Y957580D01*
X1179322Y972312D02*
Y977646D01*
X1175512Y981456D02*
X1179322Y977646D01*
X1113080Y758138D02*
X1120394Y750824D01*
X1113080Y758138D02*
Y775432D01*
X1105460Y566420D02*
Y575520D01*
Y566420D02*
X1108000Y563880D01*
X1117346D01*
X1122426Y558800D01*
Y542036D02*
Y558800D01*
X1065784Y542036D02*
X1122426D01*
X1027938Y579882D02*
X1065784Y542036D01*
X1027938Y579882D02*
Y663194D01*
X1008888Y682244D02*
X1027938Y663194D01*
X1008888Y682244D02*
Y718820D01*
X1016508Y726440D01*
X1031331D01*
X1039622Y734731D01*
Y819912D01*
X1046734Y827024D01*
X989076Y915368D02*
Y995680D01*
X1090710Y876300D02*
Y885100D01*
X1082582Y868172D02*
X1090710Y876300D01*
X1026414Y868172D02*
X1082582D01*
X1015926Y857684D02*
X1026414Y868172D01*
X984250Y857684D02*
X1015926D01*
X975067Y848501D02*
X984250Y857684D01*
X915162Y848501D02*
X975067D01*
X901559Y834898D02*
X915162Y848501D01*
X889000Y834898D02*
X901559D01*
X882396Y828294D02*
X889000Y834898D01*
X882396Y562356D02*
Y828294D01*
X833120Y513080D02*
X882396Y562356D01*
X1078010Y875572D02*
Y885100D01*
X1075690Y873252D02*
X1078010Y875572D01*
X1009911Y873252D02*
X1075690D01*
X999424Y862764D02*
X1009911Y873252D01*
X971596Y862764D02*
X999424D01*
X962457Y853626D02*
X971596Y862764D01*
X887845Y853626D02*
X962457D01*
X875538Y841319D02*
X887845Y853626D01*
X875538Y657098D02*
Y841319D01*
X833120Y614680D02*
X875538Y657098D01*
X1016000Y759249D02*
X1019810D01*
X1001717Y773532D02*
X1016000Y759249D01*
X1001717Y773532D02*
Y796349D01*
X996093Y801973D02*
X1001717Y796349D01*
X971862Y801973D02*
X996093D01*
X965120Y795230D02*
X971862Y801973D01*
X1012698Y792180D02*
X1021080D01*
X1008634Y808228D02*
Y825500D01*
X1032256Y849122D01*
X1050798D01*
X1038860Y901954D02*
Y922782D01*
X1040892Y924814D01*
Y1049994D01*
X937260Y1071372D02*
X1019514D01*
X937260Y1050000D02*
X946010D01*
X1019810Y767292D02*
Y769407D01*
X1033526D02*
Y830072D01*
X1042416Y838962D01*
X1100074D01*
X1104392Y843280D01*
Y890778D01*
X1059180Y935990D02*
X1104392Y890778D01*
X1059180Y935990D02*
Y999962D01*
X1078992Y1019774D01*
Y1026160D01*
X1081786Y1028954D01*
X1105118D01*
X1109472Y1024600D01*
X1121010D01*
X1079460Y575520D02*
Y607568D01*
X960592Y910300D02*
X960628Y910336D01*
X946010Y910300D02*
X960592D01*
X945896Y897600D02*
X946010D01*
X945896Y890016D02*
X956056Y879856D01*
X1056132Y665734D02*
X1066546Y676148D01*
X1056132Y655320D02*
Y665734D01*
Y655320D02*
X1061212Y650240D01*
X1087380D01*
X1092460Y645160D01*
Y633520D02*
Y645160D01*
X1131460Y618998D02*
Y633520D01*
X1121918Y609456D02*
X1131460Y618998D01*
X1121918Y603250D02*
Y609456D01*
X1118460Y620678D02*
Y633520D01*
Y620678D02*
X1128014Y611124D01*
X1141476Y453136D02*
X1203146D01*
X1219962Y469952D01*
Y526542D01*
X1231900Y538480D01*
X1132580Y691394D02*
X1136650Y687324D01*
X1132580Y691394D02*
Y707928D01*
X1106580Y753288D02*
Y775432D01*
Y753288D02*
X1110234Y749634D01*
Y725932D02*
Y749634D01*
Y725932D02*
X1110488Y725678D01*
X950944Y830580D02*
Y831596D01*
X975220Y722122D02*
X984364Y731266D01*
X975220Y712470D02*
Y722122D01*
X1043940Y638249D02*
X1056132D01*
X1063043Y645160D01*
X1076920D01*
X1079460Y642620D01*
Y633520D02*
Y642620D01*
X1111960Y575520D02*
Y591110D01*
X1111758Y591312D02*
X1111960Y591110D01*
X934684Y948400D02*
X946010D01*
X926846Y940562D02*
X934684Y948400D01*
X926846Y883920D02*
Y940562D01*
X921512Y878586D02*
X926846Y883920D01*
X900430Y878586D02*
X921512D01*
X885698Y893318D02*
X900430Y878586D01*
X869188Y893318D02*
X885698D01*
X855218Y879348D02*
X869188Y893318D01*
X855218Y692505D02*
Y879348D01*
X841655Y678942D02*
X855218Y692505D01*
X828040Y678942D02*
X841655D01*
X821182Y685800D02*
X828040Y678942D01*
X821182Y685800D02*
Y697484D01*
X828040Y704342D01*
X838200D01*
X845058Y711200D01*
Y755142D01*
X833120Y767080D02*
X845058Y755142D01*
X1147572Y747724D02*
Y750824D01*
X1119580Y719732D02*
X1147572Y747724D01*
X1119580Y707928D02*
Y719732D01*
X1142492Y956310D02*
X1146810D01*
X1183640Y1003808D02*
X1194308Y993140D01*
Y982777D02*
Y993140D01*
X1191260Y979729D02*
X1194308Y982777D01*
X1187450Y979729D02*
X1191260D01*
X1032510Y1003300D02*
Y1022858D01*
X1025652Y1029716D02*
X1032510Y1022858D01*
X1057946Y1029716D02*
X1090930Y1062700D01*
X1121010D01*
X946010Y1011900D02*
X955040D01*
X962406Y1019266D01*
Y1028446D01*
X890916Y1115430D02*
X912876Y1093470D01*
X838316Y1115430D02*
X890916D01*
X821182Y1098296D02*
X838316Y1115430D01*
X821182Y804418D02*
Y1098296D01*
Y804418D02*
X833120Y792480D01*
X1092460Y575520D02*
Y589794D01*
X1093470Y590804D01*
Y602234D01*
X1097280Y606044D01*
X1098804D01*
X1101598Y608838D01*
X1108674Y1050000D02*
X1121010D01*
X1106170Y1047496D02*
X1108674Y1050000D01*
X902970Y943000D02*
X911860D01*
X914654Y945794D01*
Y982726D01*
X924052Y992124D01*
Y1021080D01*
X916178Y1028954D02*
X924052Y1021080D01*
X909320Y1028954D02*
X916178D01*
X902970Y1035304D02*
X909320Y1028954D01*
X902970Y1035304D02*
Y1043940D01*
X1140460Y861771D02*
X1157725D01*
X1181608Y885654D01*
Y937666D01*
X1172464Y946810D02*
X1181608Y937666D01*
X1167010Y946810D02*
X1172464D01*
X933958Y588772D02*
X954238D01*
X927354Y582168D02*
X933958Y588772D01*
X902970Y585978D02*
X906780Y582168D01*
X902970Y585978D02*
Y628396D01*
X913280Y638706D01*
Y712470D01*
X898209Y764918D02*
Y777240D01*
X892556Y759265D02*
X898209Y764918D01*
X892556Y741680D02*
Y759265D01*
Y741680D02*
X900280Y733956D01*
Y712470D02*
Y733956D01*
X1044702Y797052D02*
X1056640Y808990D01*
X1082188D01*
X1131460Y575520D02*
Y584200D01*
X1134254Y586994D01*
X1148080D01*
X1150620Y584454D01*
Y459994D02*
Y584454D01*
Y459994D02*
X1151636Y458978D01*
X1198880D01*
X1213866Y473964D01*
Y845820D01*
X1224534Y856488D01*
X1236726D01*
X1243838Y863600D01*
Y1076960D01*
X1235456Y1085342D02*
X1243838Y1076960D01*
X923036Y1085342D02*
X1235456D01*
X921004Y1083310D02*
X923036Y1085342D01*
X901446Y1083310D02*
X921004D01*
X874522Y1110234D02*
X901446Y1083310D01*
X850138Y1110234D02*
X874522D01*
X844930Y1105026D02*
X850138Y1110234D01*
X844930Y1038732D02*
Y1105026D01*
X840740Y1034542D02*
X844930Y1038732D01*
X838200Y1034542D02*
X840740D01*
X833120Y1029462D02*
X838200Y1034542D01*
X833120Y1021080D02*
Y1029462D01*
X1098960Y575520D02*
Y589124D01*
X1096264Y591820D02*
X1098960Y589124D01*
X985012Y508000D02*
Y528066D01*
X977392Y500380D02*
X985012Y508000D01*
X934720Y500380D02*
X977392D01*
X922274Y512826D02*
X934720Y500380D01*
X922274Y512826D02*
Y556768D01*
X944118Y578612D01*
X1114806Y897600D02*
X1121010D01*
X1114806Y865368D02*
X1141720Y838454D01*
X1080580Y775432D02*
Y778256D01*
X1044702Y766318D02*
X1056640Y778256D01*
X1044702Y721360D02*
Y766318D01*
X1033981Y710639D02*
X1044702Y721360D01*
X1021080Y710639D02*
X1033981D01*
X953770Y661670D02*
X985520D01*
X998728Y674878D01*
Y751078D01*
X1003808Y756158D01*
X1019048Y710639D02*
X1021080D01*
X1144460Y633520D02*
Y643636D01*
X1150112D01*
X1155700Y649224D01*
X969772Y1093470D02*
X1199134D01*
X875792Y1108710D02*
X900430Y1084072D01*
X844804Y1108710D02*
X875792D01*
X833120Y1097026D02*
X844804Y1108710D01*
X833120Y1071880D02*
Y1097026D01*
Y944880D02*
X844930Y956690D01*
Y1097280D01*
X856360Y1108710D01*
X872998D01*
X901446Y1080262D01*
X1134110D01*
X1137412Y1076960D01*
Y978662D02*
Y1076960D01*
Y978662D02*
X1160018Y956056D01*
X1175512D01*
X1188851Y942717D01*
Y880872D02*
Y942717D01*
X1168400Y860421D02*
X1188851Y880872D01*
X1168400Y643890D02*
Y860421D01*
Y643890D02*
X1180592Y631698D01*
Y612140D02*
Y631698D01*
X1176221Y607769D02*
X1180592Y612140D01*
X1142439Y607769D02*
X1176221D01*
X1124960Y590290D02*
X1142439Y607769D01*
X1124960Y575520D02*
Y590290D01*
X894080Y1043940D02*
X902970D01*
X889000Y1038860D02*
X894080Y1043940D01*
X889000Y1005690D02*
Y1038860D01*
Y1005690D02*
X894080Y1000610D01*
X901700D01*
X1072960Y626364D02*
Y633520D01*
X1033018Y623062D02*
X1036320Y626364D01*
X1033018Y588211D02*
Y623062D01*
Y588211D02*
X1036320Y584909D01*
X1045210D01*
X977830Y574040D02*
Y579080D01*
X1026160Y538226D02*
Y547370D01*
Y538226D02*
X1032510Y531876D01*
X1089914D01*
X1104900Y516890D01*
X922782Y593344D02*
X931418Y601980D01*
X911930Y593344D02*
Y601980D01*
X1082188Y808990D02*
Y817880D01*
X1085400Y821092D01*
X1138508D01*
X1141720Y817880D01*
Y810260D02*
Y817880D01*
X946010Y1050000D02*
X956600D01*
X972566Y1034034D01*
Y1011174D02*
Y1034034D01*
X967486Y1006094D02*
X972566Y1011174D01*
X952500Y547370D02*
Y560070D01*
X933500Y538480D02*
X936802Y535178D01*
X963676D01*
Y547878D01*
X990600Y574802D01*
Y596138D01*
X984758Y601980D02*
X990600Y596138D01*
X977830Y601980D02*
X984758D01*
X902970Y1056940D02*
X914826D01*
X934466Y1037300D02*
X946010D01*
X944880Y624880D02*
X977830D01*
X934770Y634990D02*
X944880Y624880D01*
X934770Y634990D02*
Y661670D01*
X847870Y472930D02*
X908050D01*
X833120Y487680D02*
X847870Y472930D01*
X1157449Y965810D02*
X1167010D01*
X1151890Y971369D02*
X1157449Y965810D01*
X1151890Y971369D02*
Y1006810D01*
X1085960Y564134D02*
Y575520D01*
X1066800Y564134D02*
X1085960D01*
X1063498Y567436D02*
X1066800Y564134D01*
X1063498Y567436D02*
Y602033D01*
X1054100Y611431D02*
X1063498Y602033D01*
X1045210Y611431D02*
X1054100D01*
X1107440Y516636D02*
X1110488Y513588D01*
Y491744D02*
Y513588D01*
X1107440Y488696D02*
X1110488Y491744D01*
X1104900Y488696D02*
X1107440D01*
X1104900Y485140D02*
Y488696D01*
X1134189Y440200D02*
X1168400D01*
X1111774Y462615D02*
X1134189Y440200D01*
X1106851Y462615D02*
X1111774D01*
X1106170Y463296D02*
X1106851Y462615D01*
X1106170Y463296D02*
Y463970D01*
X906780Y777240D02*
X917360D01*
X941120Y753480D01*
X1045210Y584909D02*
X1055116D01*
Y561222D02*
Y584909D01*
Y561222D02*
X1057792Y558546D01*
X1107724D01*
X1115090Y551180D01*
X902970Y942506D02*
Y943000D01*
X1145540Y1006810D02*
X1151890D01*
X1142492Y1009858D02*
X1145540Y1006810D01*
X1142492Y1009858D02*
Y1059942D01*
X1145540Y1062990D01*
X1149350D01*
X951230Y712470D02*
X957720D01*
X948436Y708406D02*
X951230Y711200D01*
X923544Y708406D02*
X948436D01*
X919480Y712470D02*
X923544Y708406D01*
X913280Y712470D02*
X919480D01*
X1001014Y585170D02*
X1004570D01*
X977830Y616204D02*
X1001014Y593020D01*
X977830Y616204D02*
Y624880D01*
X898209Y777240D02*
Y798615D01*
X896470Y800354D02*
X898209Y798615D01*
X896470Y800354D02*
Y805180D01*
X900280Y712470D02*
X913280D01*
X908050Y438930D02*
Y472930D01*
X1104900Y474980D02*
Y485140D01*
Y474980D02*
X1106170Y473710D01*
Y463970D02*
Y473710D01*
X969010Y477774D02*
Y491110D01*
X967740Y476504D02*
X969010Y477774D01*
X967740Y463232D02*
Y476504D01*
X1018510Y975300D02*
X1032510D01*
X1018510Y1003300D02*
X1032510D01*
Y975300D02*
Y989300D01*
Y1003300D01*
X1018510Y989300D02*
X1032510D01*
X1004510D02*
X1018510D01*
X1004510D02*
Y1003300D01*
Y975300D02*
Y989300D01*
D63*
X833120Y919480D02*
D03*
Y894080D02*
D03*
Y868680D02*
D03*
Y843280D02*
D03*
Y792480D02*
D03*
Y767080D02*
D03*
Y665480D02*
D03*
Y589280D02*
D03*
Y538480D02*
D03*
Y487680D02*
D03*
Y513080D02*
D03*
Y563880D02*
D03*
Y614680D02*
D03*
Y640080D02*
D03*
Y690880D02*
D03*
Y716280D02*
D03*
Y741680D02*
D03*
Y817880D02*
D03*
Y944880D02*
D03*
Y970280D02*
D03*
Y995680D02*
D03*
Y1021080D02*
D03*
Y1046480D02*
D03*
Y1071880D02*
D03*
X1231900Y919480D02*
D03*
Y894080D02*
D03*
Y868680D02*
D03*
Y843280D02*
D03*
Y792480D02*
D03*
Y767080D02*
D03*
Y665480D02*
D03*
Y589280D02*
D03*
Y538480D02*
D03*
Y487680D02*
D03*
Y513080D02*
D03*
Y563880D02*
D03*
Y614680D02*
D03*
Y640080D02*
D03*
Y690880D02*
D03*
Y716280D02*
D03*
Y741680D02*
D03*
Y817880D02*
D03*
Y944880D02*
D03*
Y970280D02*
D03*
Y995680D02*
D03*
Y1021080D02*
D03*
Y1046480D02*
D03*
Y1071880D02*
D03*
D64*
X833120Y462280D02*
D03*
X1231900D02*
D03*
D65*
X1154430Y1033780D02*
D03*
X1094232Y849122D02*
D03*
X1135380Y531114D02*
D03*
X1195578Y516382D02*
D03*
X1071118Y1060196D02*
D03*
X897636Y501142D02*
D03*
X933500Y524002D02*
D03*
X939800Y794766D02*
D03*
X959866Y614426D02*
D03*
X908050Y819658D02*
D03*
X910844Y928624D02*
D03*
X1127506Y840940D02*
D03*
X1147572Y1075182D02*
D03*
X1151636Y912368D02*
D03*
X925576Y577342D02*
D03*
X873760Y497840D02*
D03*
X1136904Y792988D02*
D03*
X966978Y970026D02*
D03*
X1152906Y729234D02*
D03*
X1058418Y792988D02*
D03*
X916686Y911606D02*
D03*
X931308Y1038606D02*
D03*
X1188974Y1062990D02*
D03*
X944626Y867918D02*
D03*
X1064260Y616204D02*
D03*
X875538Y883158D02*
D03*
X1104646Y941832D02*
D03*
X884899Y868934D02*
D03*
X1085342Y940816D02*
D03*
X885190Y1073053D02*
D03*
X1094232Y1013714D02*
D03*
X862838Y1098550D02*
D03*
X1103666Y994192D02*
D03*
X1075691Y985230D02*
D03*
X918718Y746252D02*
D03*
X1003046Y544068D02*
D03*
X905764Y526796D02*
D03*
X1169162Y977900D02*
D03*
X1155700Y886206D02*
D03*
X1066546Y660908D02*
D03*
X1175512Y579374D02*
D03*
X1049020Y914654D02*
D03*
X1124966Y884174D02*
D03*
X1078738Y752602D02*
D03*
X1069340Y959358D02*
D03*
X1026668Y954278D02*
D03*
X962914Y895096D02*
D03*
X994410Y847344D02*
D03*
X917194Y834390D02*
D03*
X921258Y868426D02*
D03*
X1018032Y572262D02*
D03*
X916686Y893180D02*
D03*
X982980Y651510D02*
D03*
X1192784Y689102D02*
D03*
X1135380Y672084D02*
D03*
X1105662Y683514D02*
D03*
X1192784Y696976D02*
D03*
X1100074Y740918D02*
D03*
X1188974Y1024128D02*
D03*
X962152Y938530D02*
D03*
X1073659Y741679D02*
D03*
X1072642Y724408D02*
D03*
X931164Y973074D02*
D03*
X962914Y895096D02*
D03*
X1056132Y763270D02*
D03*
X1099312Y792734D02*
D03*
X1205992Y438150D02*
D03*
X1195578Y503428D02*
D03*
X1175512Y981456D02*
D03*
X1120394Y750824D02*
D03*
X1046734Y827024D02*
D03*
X989076Y915368D02*
D03*
Y995680D02*
D03*
X1050798Y849122D02*
D03*
X1038860Y901954D02*
D03*
X1079460Y607568D02*
D03*
X960628Y910336D02*
D03*
X956056Y879856D02*
D03*
X1066546Y676148D02*
D03*
X1121918Y603250D02*
D03*
X1128014Y611124D02*
D03*
X1141476Y453136D02*
D03*
X1136650Y687324D02*
D03*
X1110488Y725678D02*
D03*
X937514Y831596D02*
D03*
X984364Y731266D02*
D03*
X1111758Y591312D02*
D03*
X1147572Y750824D02*
D03*
X1142492Y946150D02*
D03*
X1183640Y1003808D02*
D03*
X1025652Y1029716D02*
D03*
X1057946D02*
D03*
X962406Y1028446D02*
D03*
X912876Y1093470D02*
D03*
X1101598Y608838D02*
D03*
X1106170Y1047496D02*
D03*
X1096264Y591820D02*
D03*
X985012Y528066D02*
D03*
X944118Y578612D02*
D03*
X1003808Y756158D02*
D03*
X1019048Y698500D02*
D03*
X1155700Y649224D02*
D03*
X1199134Y1093470D02*
D03*
X969772D02*
D03*
X900430Y1084072D02*
D03*
X965200Y564388D02*
D03*
X1026160Y547370D02*
D03*
X967486Y1006094D02*
D03*
X913742Y1013610D02*
D03*
M02*
