G04*
G04 #@! TF.GenerationSoftware,Altium Limited,Altium Designer,23.1.1 (15)*
G04*
G04 Layer_Color=65535*
%FSLAX44Y44*%
%MOMM*%
G71*
G04*
G04 #@! TF.SameCoordinates,41D86B32-BED1-46DB-A61E-0691954F4559*
G04*
G04*
G04 #@! TF.FilePolarity,Positive*
G04*
G01*
G75*
%ADD10C,0.2500*%
%ADD11C,0.5000*%
%ADD12C,0.2000*%
%ADD13C,0.4000*%
D10*
X1153330Y789196D02*
G03*
X1153330Y789196I-1250J0D01*
G01*
X934260Y1062700D02*
G03*
X934260Y1062700I-1250J0D01*
G01*
X1011180Y512650D02*
G03*
X1011180Y512650I-1250J0D01*
G01*
X1074210Y562020D02*
G03*
X1074210Y562020I-1250J0D01*
G01*
X979080Y566980D02*
G03*
X979080Y566980I-1250J0D01*
G01*
X932120Y783730D02*
G03*
X932120Y783730I-1250J0D01*
G01*
D11*
X1152330Y754167D02*
G03*
X1152330Y754167I-2500J0D01*
G01*
D12*
X1075330Y761667D02*
X1157330D01*
X1075330Y721693D02*
Y761667D01*
Y721693D02*
X1157330D01*
Y761667D01*
X894550Y439930D02*
X895800D01*
X920300D02*
X921550D01*
Y471930D01*
X894550D02*
X895800D01*
X920300D02*
X921550D01*
X894550Y439930D02*
Y471930D01*
X893200Y999110D02*
Y1015110D01*
X910200Y999110D02*
Y1015110D01*
X1100090Y543680D02*
X1116090D01*
X1100090Y558680D02*
X1116090D01*
X1160390Y1005310D02*
Y1021310D01*
X1143390Y1005310D02*
Y1021310D01*
X898780Y703970D02*
X914780D01*
X898780Y720970D02*
X914780D01*
X974603Y451583D02*
Y466308D01*
X960878Y451583D02*
Y466308D01*
X962510Y494230D02*
Y511230D01*
X975510Y494230D02*
Y519730D01*
X1107900Y517970D02*
Y525970D01*
X1101900Y514320D02*
Y525970D01*
X1107900Y486640D02*
Y494640D01*
X1101900Y482990D02*
Y494640D01*
X1103170Y454470D02*
Y462470D01*
X1109170Y454470D02*
Y466120D01*
X1154900Y441200D02*
X1156150D01*
X1180650D02*
X1181900D01*
Y473200D01*
X1154900D02*
X1156150D01*
X1180650D02*
X1181900D01*
X1154900Y441200D02*
Y473200D01*
X942760Y1070950D02*
Y1075350D01*
Y881850D02*
Y889350D01*
X1098960Y881850D02*
X1124260D01*
X942760D02*
X968160D01*
X1124260Y1070950D02*
Y1075350D01*
Y881850D02*
Y889350D01*
X942760Y1075350D02*
X1124260D01*
X1085830Y460550D02*
Y482550D01*
X994430Y460550D02*
Y482550D01*
X1148210Y586770D02*
Y622270D01*
X1069210Y586770D02*
Y622270D01*
X927355Y569455D02*
X962405D01*
X927355D02*
Y634505D01*
X962405D01*
Y569455D02*
Y634505D01*
X1149910Y941310D02*
X1159260D01*
X1149910Y963060D02*
Y971310D01*
Y941310D02*
Y949560D01*
Y971310D02*
X1159260D01*
X1163910Y953560D02*
Y959060D01*
X1153780Y885430D02*
X1163130D01*
X1153780Y907180D02*
Y915430D01*
Y885430D02*
Y893680D01*
Y915430D02*
X1163130D01*
X1167780Y897680D02*
Y903180D01*
X1090719Y816990D02*
X1100180D01*
X1090719Y800990D02*
X1100180D01*
X1053210Y593439D02*
Y602901D01*
X1037210Y593439D02*
Y602901D01*
X1035940Y646779D02*
Y656240D01*
X1051940Y646779D02*
Y656240D01*
X1176400Y601059D02*
Y610521D01*
X1160400Y601059D02*
Y610521D01*
X1156213Y1051106D02*
Y1065831D01*
X1142487Y1051106D02*
Y1065831D01*
X997070Y594670D02*
Y601670D01*
X1012070Y594670D02*
Y601670D01*
X1133597Y849888D02*
Y864612D01*
X1147323Y849888D02*
Y864612D01*
X1180587Y976888D02*
Y991612D01*
X1194313Y976888D02*
Y991612D01*
X960218Y839611D02*
X970182D01*
X960218Y821549D02*
X970182D01*
X1013580Y801680D02*
Y808680D01*
X1028580Y801680D02*
Y808680D01*
X896607Y742550D02*
X909332D01*
X896607Y756050D02*
X909332D01*
X1013060Y756908D02*
Y769633D01*
X1026560Y756908D02*
Y769633D01*
X1029080Y719169D02*
Y728631D01*
X1013080Y719169D02*
Y728631D01*
X939620Y788730D02*
Y793980D01*
Y742980D02*
Y748230D01*
X985370Y742980D02*
X990620D01*
X939620D02*
X944870D01*
X990620Y788730D02*
Y793980D01*
Y742980D02*
Y748230D01*
X985370Y793980D02*
X990620D01*
X939620D02*
X944870D01*
X894470Y1042440D02*
Y1058440D01*
X911470Y1042440D02*
Y1058440D01*
X895132Y784103D02*
X909857D01*
X895132Y770377D02*
X909857D01*
X894970Y796680D02*
X910970D01*
X894970Y813680D02*
X910970D01*
X846570Y448080D02*
Y1086080D01*
X819670Y448080D02*
X846570D01*
X819670D02*
Y1086080D01*
X846570D01*
X1245350Y448080D02*
Y1086080D01*
X1218450Y448080D02*
X1245350D01*
X1218450D02*
Y1086080D01*
X1245350D01*
D13*
X898970Y915680D02*
X906970D01*
M02*
